<?xml version="1.0" encoding="UTF-8" standalone="no"?>
<!-- Created with Inkscape (http://www.inkscape.org/) -->

<svg
   width="512"
   height="512"
   viewBox="0 0 512 512"
   version="1.1"
   id="svg1"
   xml:space="preserve"
   xmlns:xlink="http://www.w3.org/1999/xlink"
   xmlns="http://www.w3.org/2000/svg"
   xmlns:svg="http://www.w3.org/2000/svg"><defs
     id="defs1"><linearGradient
       id="linearGradient9"><stop
         style="stop-color:#129df5;stop-opacity:1;"
         offset="0"
         id="stop9" /><stop
         style="stop-color:#8544ec;stop-opacity:1;"
         offset="1"
         id="stop10" /></linearGradient><linearGradient
       xlink:href="#linearGradient9"
       id="linearGradient10"
       x1="828.6615"
       y1="385.00339"
       x2="1251.6154"
       y2="765.8327"
       gradientUnits="userSpaceOnUse"
       gradientTransform="translate(516.16259,-242.90004)" /></defs><g
     id="layer4"
     style="opacity:1"><g
       id="g1"
       transform="matrix(0.89317723,0,0,0.89317723,-1134.2246,-44.508453)"><path
         id="rect1"
         style="baseline-shift:baseline;display:inline;overflow:visible;opacity:1;vector-effect:none;fill:url(#linearGradient10);fill-rule:nonzero;enable-background:accumulate;stop-color:#000000;stop-opacity:1"
         d="m 1523.2485,76.781598 v 30.814452 c -1.6095,0.26292 -3.2152,0.54528 -4.8144,0.84571 v -0.0488 c -43.8728,8.15031 -82.974,30.19036 -112.543,61.35547 -5.9567,6.2782 -11.3658,13.04932 -16.5098,20.02929 -1.3745,1.86292 -2.7211,3.72627 -4.0351,5.63868 -4.8689,7.08771 -9.4239,14.39801 -13.3985,22.07812 -0.4838,0.93743 -0.8658,1.93251 -1.3359,2.87891 -3.6867,7.39883 -6.863,15.07236 -9.6582,22.93554 -0.5686,1.60799 -1.1727,3.18438 -1.7031,4.8125 -2.9056,8.86607 -5.2581,17.9607 -6.9512,27.30079 -0.058,0.31738 -0.1783,0.60588 -0.2344,0.92382 -0.1614,0.91575 -0.1578,1.81932 -0.3066,2.73438 -1.0802,6.6337 -1.8309,13.36031 -2.2617,20.18555 -0.1334,2.09689 -0.2396,4.18044 -0.3086,6.26953 -0.075,2.28623 -0.334,4.52611 -0.334,6.83007 0,3.87462 0.3802,7.65512 0.5918,11.47852 0.1128,2.00916 0.1394,4.02591 0.3105,6.02344 2.0739,24.5605 8.4717,47.87008 18.4063,69.2793 0.4872,1.0516 1.0248,2.07043 1.5293,3.11328 2.908,6.00078 6.0806,11.82984 9.5332,17.49414 0.8475,1.39564 1.6945,2.78104 2.5742,4.15625 3.4315,5.34322 7.1016,10.49869 10.9941,15.49414 0.9869,1.27215 1.9078,2.58458 2.9239,3.83398 4.9302,6.03521 10.0922,11.8695 15.6582,17.31445 5.2318,5.11809 10.8234,9.85243 16.5683,14.4004 1.8293,1.45191 3.6834,2.85609 5.5645,4.24804 5.0083,3.6991 10.1639,7.19555 15.5,10.44141 1.2891,0.78418 2.5272,1.62571 3.8359,2.38281 6.0985,3.53032 12.4432,6.65775 18.9102,9.56445 2.032,0.91073 12.9189,5.87703 14.9883,6.72461 -13.47,-23.9272 -12.7607,-39.06851 5.9082,-49.25781 l 12.5703,-3.04883 c -43.4961,-18.51722 -84.3502,-59.50027 -96.2442,-104.11718 -1.5524,-5.84961 -2.6864,-11.86922 -3.5429,-17.97852 -0.2456,-1.74951 -0.3405,-3.53412 -0.5254,-5.29883 -0.4553,-4.32695 -0.7624,-8.69681 -0.8516,-13.12695 -0.04,-2.26053 0.01,-4.53519 0.068,-6.8125 0.1108,-4.63892 0.5021,-9.19822 1.0136,-13.72266 0.3075,-2.63929 0.5058,-5.267 0.9532,-7.91797 0.4716,-2.84185 1.2535,-5.56442 1.8789,-8.34961 1.9506,-8.63097 4.5312,-16.94403 7.8066,-24.86718 0.6619,-1.5958 1.1513,-3.27824 1.8652,-4.84571 1.5062,-3.31972 3.3439,-6.41588 5.0684,-9.58984 1.5339,-2.81326 2.9967,-5.67008 4.6992,-8.37109 1.7638,-2.8064 3.7276,-5.44925 5.6602,-8.11914 2.0492,-2.82391 4.1251,-5.62314 6.3594,-8.29493 2.0039,-2.40037 4.1008,-4.70758 6.2421,-6.97265 2.535,-2.67754 5.1716,-5.24942 7.8946,-7.73633 2.1736,-1.98723 4.3524,-3.96665 6.6347,-5.82227 3.1714,-2.57499 6.506,-4.94296 9.8829,-7.25976 2.097,-1.44093 4.1274,-2.97599 6.2949,-4.31055 5.6472,-3.46975 11.4771,-6.67995 17.5859,-9.40234 7.8245,-3.48696 16.003,-6.3358 24.4688,-8.48047 v -0.043 c 1.5957,-0.40684 3.2013,-0.78903 4.8144,-1.14453 v 30.93555 l 42.1993,-29.39454 42.1992,-29.39453 -42.1992,-29.39453 z m 91.5977,37.179692 c 26.9618,27.93401 -3.8894,47.84647 -15.6348,52.74023 10.3874,3.32484 16.2234,5.82687 24.3828,9.17188 l -0.055,0.0273 c 8.8052,3.59277 7.9899,3.37959 15.8007,8.42188 5.7352,3.70239 11.1039,7.85986 16.2403,12.2539 1.9724,1.69088 3.7699,3.56694 5.6523,5.35547 3.0274,2.87229 6.006,5.78822 8.7793,8.89063 1.9995,2.23962 3.8687,4.5908 5.7344,6.94726 2.3311,2.94174 4.563,5.95388 6.6699,9.0586 1.7828,2.63092 3.5085,5.30074 5.127,8.04687 1.8055,3.05737 3.4318,6.21497 5.0214,9.39649 1.495,3.00032 3.0191,5.98332 4.3184,9.09374 1.2666,3.02128 2.2682,6.1557 3.3398,9.26368 1.1873,3.45794 2.4926,6.86046 3.4336,10.42773 0.5793,2.18245 0.8649,4.45685 1.3477,6.67188 1.7672,8.15266 2.8494,16.53969 3.2656,25.13281 0.1331,2.8312 0.4553,5.62246 0.4297,8.48242 -0.014,2.25731 -0.2178,4.46307 -0.3281,6.69531 -0.2736,5.19415 -0.7483,10.41266 -1.5645,15.66407 -0.3501,2.29585 -0.5749,4.63434 -1.0254,6.89453 -2.5459,12.63517 -6.5774,24.59325 -11.8789,35.72461 -18.6625,39.07396 -53.4499,68.82492 -95.8828,80.76953 v 0.0742 c -4.4508,1.25661 -8.9749,2.31446 -13.5605,3.16406 v -32.39258 l -38.0957,27.67578 -38.0938,27.67578 38.0938,27.67578 38.0957,27.67579 v -22.74414 c 4.5597,-0.62975 9.082,-1.41064 13.5605,-2.3379 v 0.0274 c 28.1544,-5.78878 54.2593,-17.31341 77.0332,-33.29102 6.3158,-4.41198 12.3054,-9.26814 18.1035,-14.35351 1.1734,-1.03388 2.2681,-2.14159 3.418,-3.20118 4.6469,-4.26354 9.1018,-8.72199 13.3555,-13.40234 1.0584,-1.16857 2.089,-2.35049 3.1211,-3.54297 4.3323,-4.98983 8.4198,-10.18734 12.2754,-15.59765 0.6439,-0.90451 1.3159,-1.78025 1.9453,-2.69532 13.2393,-19.22449 23.3776,-40.87181 29.5664,-64.44922 0.5152,-1.95426 0.8984,-3.94975 1.3574,-5.92578 0.8279,-3.5762 1.8163,-7.08016 2.4609,-10.73632 0.3772,-2.13901 0.465,-4.25744 0.7735,-6.39258 0.3856,-2.6693 0.6921,-5.3502 0.9746,-8.05078 0.6091,-5.80668 0.9607,-11.57292 1.0781,-17.32422 0.03,-1.43458 0.2656,-2.81637 0.2656,-4.25782 0,-0.95502 -0.1649,-1.86833 -0.1777,-2.82031 -0.09,-6.45295 -0.5241,-12.8331 -1.209,-19.17187 -0.1978,-1.85652 -0.2824,-3.73828 -0.5293,-5.58008 -1.0933,-8.05999 -2.5369,-16.03162 -4.5488,-23.82617 -5.6423,-21.99015 -14.8139,-42.59299 -26.8731,-61.16211 -35.4777,-54.80471 -95.218,-82.40748 -115.5644,-85.84375 z m -297.4942,9.35351 c -25.0173,0 -45.6211,20.60179 -45.6211,45.61914 v 286.79493 c 0,25.01735 20.6038,45.62109 45.6211,45.62109 h 120.2461 c -13.5138,-8.53733 -26.0613,-18.48168 -37.4316,-29.62305 h -82.8145 c -9.119,0 -15.998,-6.87901 -15.998,-15.99804 V 168.93394 c 0,-9.11903 6.879,-15.99804 15.998,-15.99804 h 82.8164 c 11.3698,-11.14058 23.9167,-21.08426 37.4297,-29.6211 z m 357.6544,0 c 13.513,8.53684 26.0578,18.48052 37.4277,29.6211 h 82.8183 c 9.1191,0 15.9981,6.87901 15.9981,15.99804 v 286.79493 c 0,9.11903 -6.879,15.99804 -15.9981,15.99804 h -82.8144 c -11.3704,11.14137 -23.9178,21.08572 -37.4316,29.62305 h 120.246 c 25.0174,0 45.6192,-20.60374 45.6192,-45.62109 V 168.93394 c 0,-25.01735 -20.6018,-45.61914 -45.6192,-45.61914 z m -218.5333,434.50391 c -17.4406,0 -31.646,13.353 -32.9941,30.43555 h 265.6465 c -1.3481,-17.08255 -15.5555,-30.43555 -32.9961,-30.43555 z" /><circle
         style="font-variation-settings:normal;opacity:1;fill:#ff0101;fill-opacity:1;stroke:none;stroke-width:146.282;stroke-linecap:butt;stroke-linejoin:miter;stroke-miterlimit:4;stroke-dasharray:none;stroke-dashoffset:0;stroke-opacity:1"
         id="path9"
         cx="1557.1287"
         cy="312.03445"
         r="63.777145" /></g></g></svg>
