<?xml version="1.0" encoding="UTF-8" standalone="no"?>
<!-- Created with Inkscape (http://www.inkscape.org/) -->

<svg
   width="1900"
   height="511.47266"
   viewBox="0 0 1900 511.47266"
   version="1.1"
   id="svg1"
   xml:space="preserve"
   sodipodi:docname="omnirec-landscape.svg"
   inkscape:version="1.4.2 (f4327f4, 2025-05-13)"
   xmlns:inkscape="http://www.inkscape.org/namespaces/inkscape"
   xmlns:sodipodi="http://sodipodi.sourceforge.net/DTD/sodipodi-0.dtd"
   xmlns:xlink="http://www.w3.org/1999/xlink"
   xmlns="http://www.w3.org/2000/svg"
   xmlns:svg="http://www.w3.org/2000/svg"><sodipodi:namedview
     id="namedview1"
     pagecolor="#ffffff"
     bordercolor="#000000"
     borderopacity="0.25"
     inkscape:showpageshadow="2"
     inkscape:pageopacity="0.0"
     inkscape:pagecheckerboard="0"
     inkscape:deskcolor="#d1d1d1"
     inkscape:zoom="1.0659971"
     inkscape:cx="972.79813"
     inkscape:cy="397.74967"
     inkscape:window-width="3840"
     inkscape:window-height="2054"
     inkscape:window-x="7669"
     inkscape:window-y="-11"
     inkscape:window-maximized="1"
     inkscape:current-layer="layer4" /><defs
     id="defs1"><linearGradient
       id="linearGradient9"><stop
         style="stop-color:#129df5;stop-opacity:1;"
         offset="0"
         id="stop9" /><stop
         style="stop-color:#8544ec;stop-opacity:1;"
         offset="1"
         id="stop10" /></linearGradient><linearGradient
       xlink:href="#linearGradient9"
       id="linearGradient10"
       x1="828.6615"
       y1="385.00339"
       x2="1251.6154"
       y2="765.8327"
       gradientUnits="userSpaceOnUse"
       gradientTransform="translate(-69.655155,-298.26697)" /></defs><g
     id="layer4"
     style="opacity:1"
     transform="translate(-116.16967,-49.991143)"><g
       id="text10"
       style="font-size:192px;font-family:Comfortaa;-inkscape-font-specification:'Comfortaa, @wght=700';font-variation-settings:'wght' 700;fill:#666666;stroke-width:86.9"
       aria-label="OmniRec"
       transform="matrix(1.4127699,0,0,1.4127699,28.332316,-664.0865)"><path
         d="m 609.42783,752.12679 q -16.896,0 -30.912,-5.568 -14.016,-5.76 -24.192,-15.936 -9.984,-10.368 -15.552,-24.384 -5.568,-14.208 -5.568,-31.104 0,-16.896 5.568,-30.912 5.568,-14.016 15.552,-24.192 10.176,-10.368 24.192,-15.936 14.016,-5.76 30.912,-5.76 16.896,0 30.72,5.76 14.016,5.568 24.192,15.936 10.176,10.176 15.744,24.192 5.568,14.016 5.568,30.912 0,16.896 -5.568,31.104 -5.568,14.016 -15.744,24.384 -10.176,10.176 -24.192,15.936 -13.824,5.568 -30.72,5.568 z m 0,-18.048 q 12.48,0 22.848,-4.416 10.56,-4.608 18.24,-12.48 7.68,-8.064 11.712,-18.816 4.224,-10.752 4.224,-23.232 0,-12.48 -4.224,-23.232 -4.032,-10.752 -11.712,-18.624 -7.68,-8.064 -18.24,-12.48 -10.368,-4.416 -22.848,-4.416 -12.48,0 -23.04,4.416 -10.368,4.416 -18.048,12.48 -7.488,7.872 -11.712,18.624 -4.224,10.752 -4.224,23.232 0,12.48 4.224,23.232 4.224,10.752 11.712,18.816 7.68,7.872 18.048,12.48 10.56,4.416 23.04,4.416 z m 243.45591,16.32 q -4.224,0 -7.104,-2.688 -2.688,-2.88 -2.688,-7.104 v -54.912 q 0,-12.096 -5.952,-17.856 -5.952,-5.952 -15.552,-5.952 -9.984,0 -16.512,6.912 -6.336,6.912 -6.336,17.664 h -15.936 q 0,-12.48 5.376,-21.888 5.376,-9.6 14.976,-14.976 9.792,-5.376 22.272,-5.376 10.944,0 19.392,4.8 8.448,4.8 13.056,14.208 4.8,9.216 4.8,22.464 v 54.912 q 0,4.224 -2.688,7.104 -2.688,2.688 -7.104,2.688 z m -128.064,0 q -4.224,0 -7.104,-2.688 -2.688,-2.88 -2.688,-7.104 v -85.44 q 0,-4.416 2.688,-7.104 2.88,-2.688 7.104,-2.688 4.416,0 7.104,2.688 2.688,2.688 2.688,7.104 v 85.44 q 0,4.224 -2.688,7.104 -2.688,2.688 -7.104,2.688 z m 64.128,0 q -4.224,0 -7.104,-2.688 -2.688,-2.88 -2.688,-7.104 v -54.912 q 0,-12.096 -5.952,-17.856 -5.952,-5.952 -15.552,-5.952 -9.984,0 -16.512,6.912 -6.528,6.912 -6.528,17.664 h -12.096 q 0,-12.48 4.992,-21.888 4.992,-9.6 13.824,-14.976 8.832,-5.376 20.16,-5.376 10.944,0 19.392,4.8 8.448,4.8 13.056,14.208 4.8,9.216 4.8,22.464 v 54.912 q 0,4.224 -2.688,7.104 -2.688,2.688 -7.104,2.688 z m 194.87995,0 q -4.224,0 -7.104,-2.688 -2.688,-2.88 -2.688,-7.104 v -47.232 q 0,-10.944 -4.032,-17.856 -4.032,-6.912 -10.944,-10.176 -6.72,-3.456 -15.552,-3.456 -8.064,0 -14.592,3.264 -6.528,3.264 -10.368,8.832 -3.84,5.376 -3.84,12.48 h -12.096 q 0,-12.096 5.76,-21.504 5.952,-9.6 16.128,-15.168 10.176,-5.568 22.848,-5.568 13.248,0 23.616,5.76 10.56,5.568 16.512,16.512 6.144,10.944 6.144,26.88 v 47.232 q 0,4.224 -2.88,7.104 -2.688,2.688 -6.912,2.688 z m -78.912,0 q -4.224,0 -7.104,-2.688 -2.688,-2.88 -2.688,-7.104 v -85.632 q 0,-4.416 2.688,-7.104 2.88,-2.688 7.104,-2.688 4.416,0 7.104,2.688 2.688,2.688 2.688,7.104 v 85.632 q 0,4.224 -2.688,7.104 -2.688,2.688 -7.104,2.688 z m 132.86381,-0.192 q -4.224,0 -7.104,-2.688 -2.688,-2.88 -2.688,-7.104 v -85.44 q 0,-4.416 2.688,-7.104 2.88,-2.688 7.104,-2.688 4.416,0 7.104,2.688 2.688,2.688 2.688,7.104 v 85.44 q 0,4.224 -2.688,7.104 -2.688,2.688 -7.104,2.688 z m 0,-122.112 q -5.184,0 -9.024,-3.648 -3.648,-3.84 -3.648,-9.024 0,-5.184 3.648,-8.832 3.84,-3.84 9.024,-3.84 5.184,0 8.832,3.84 3.84,3.648 3.84,8.832 0,5.184 -3.84,9.024 -3.648,3.648 -8.832,3.648 z"
         id="path12" /><path
         style="fill:#aa0000"
         d="m 1095.9555,750.20679 q -4.224,0 -7.104,-2.88 -2.88,-2.88 -2.88,-7.104 v -129.984 q 0,-4.416 2.88,-7.104 2.88,-2.88 7.104,-2.88 h 34.56 q 14.4,0 25.536,6.144 11.136,5.952 17.28,16.512 6.336,10.56 6.336,24.576 0,13.056 -6.336,23.232 -6.144,10.176 -17.28,15.936 -11.136,5.76 -25.536,5.76 h -24.576 v 47.808 q 0,4.224 -2.88,7.104 -2.688,2.88 -7.104,2.88 z m 79.68,0 q -2.688,0 -4.992,-1.152 -2.112,-1.152 -3.648,-3.648 l -34.56,-55.68 19.392,-5.568 31.488,50.688 q 3.456,5.568 0.96,10.56 -2.496,4.8 -8.64,4.8 z m -69.696,-76.224 h 24.576 q 8.832,0 15.552,-3.264 6.72,-3.456 10.56,-9.408 3.84,-6.144 3.84,-13.824 0,-8.448 -3.84,-14.976 -3.84,-6.528 -10.56,-10.176 -6.72,-3.648 -15.552,-3.648 h -24.576 z m 148.8,76.992 q -15.936,0 -28.416,-6.72 -12.288,-6.912 -19.392,-18.816 -6.912,-12.096 -6.912,-27.648 0,-15.744 6.528,-27.648 6.72,-12.096 18.432,-18.816 11.712,-6.912 26.88,-6.912 14.976,0 25.728,6.72 10.752,6.528 16.32,18.24 5.76,11.52 5.76,26.688 0,3.648 -2.496,6.144 -2.496,2.304 -6.336,2.304 h -77.376 v -15.36 h 76.8 l -7.872,5.376 q -0.192,-9.6 -3.84,-17.088 -3.648,-7.68 -10.368,-12.096 -6.72,-4.416 -16.32,-4.416 -10.944,0 -18.816,4.8 -7.68,4.8 -11.712,13.248 -4.032,8.256 -4.032,18.816 0,10.56 4.8,18.816 4.8,8.256 13.248,13.056 8.448,4.8 19.392,4.8 5.952,0 12.096,-2.112 6.336,-2.304 10.176,-5.184 2.88,-2.112 6.144,-2.112 3.456,-0.192 5.952,1.92 3.264,2.88 3.456,6.336 0.192,3.456 -3.072,5.952 -6.528,5.184 -16.32,8.448 -9.6,3.264 -18.432,3.264 z m 113.664,0 q -15.36,0 -27.456,-6.912 -11.904,-7.104 -18.816,-19.008 -6.72,-12.096 -6.72,-27.264 0,-15.552 6.72,-27.648 6.72,-12.096 18.432,-18.816 11.712,-6.912 26.88,-6.912 11.328,0 20.736,4.416 9.408,4.224 16.896,12.864 2.688,3.072 1.92,6.336 -0.768,3.264 -4.224,5.76 -2.688,1.92 -5.952,1.344 -3.264,-0.768 -5.952,-3.456 -9.408,-9.984 -23.424,-9.984 -9.792,0 -17.28,4.608 -7.488,4.416 -11.712,12.48 -4.224,8.064 -4.224,19.008 0,10.368 4.224,18.432 4.416,8.064 12.096,12.864 7.68,4.608 17.856,4.608 6.72,0 11.712,-1.536 5.184,-1.728 9.408,-5.184 3.072,-2.496 6.336,-2.688 3.264,-0.384 5.76,1.728 3.264,2.688 3.648,6.144 0.384,3.264 -2.304,5.952 -13.824,12.864 -34.56,12.864 z"
         id="path13" /></g><g
       id="g10"
       transform="translate(-569.74348,28.576475)"><path
         id="rect1"
         style="baseline-shift:baseline;display:inline;overflow:visible;opacity:1;vector-effect:none;fill:url(#linearGradient10);fill-rule:nonzero;enable-background:accumulate;stop-color:#000000;stop-opacity:1"
         d="m 937.43075,21.414668 v 30.81446 c -1.6095,0.26292 -3.2152,0.54528 -4.8144,0.84571 v -0.0488 c -43.8728,8.15031 -82.974,30.19036 -112.543,61.355472 -5.9567,6.2782 -11.3658,13.04932 -16.5098,20.02929 -1.3745,1.86292 -2.7211,3.72627 -4.0351,5.63868 -4.8689,7.08771 -9.4239,14.39801 -13.3985,22.07812 -0.4838,0.93743 -0.8658,1.93251 -1.3359,2.87891 -3.6867,7.39883 -6.863,15.07236 -9.6582,22.93554 -0.5686,1.60799 -1.1727,3.18438 -1.7031,4.8125 -2.9056,8.86607 -5.2581,17.9607 -6.9512,27.30079 -0.058,0.31738 -0.1783,0.60588 -0.2344,0.92382 -0.1614,0.91575 -0.1578,1.81932 -0.3066,2.73438 -1.0802,6.6337 -1.8309,13.36031 -2.2617,20.18555 -0.1334,2.09688 -0.2396,4.18043 -0.3086,6.26952 -0.075,2.28623 -0.334,4.52611 -0.334,6.83007 0,3.87462 0.3802,7.65512 0.5918,11.47852 0.1128,2.00916 0.1394,4.02591 0.3105,6.02344 2.0739,24.5605 8.4717,47.87009 18.4063,69.27931 0.4872,1.0516 1.0248,2.07043 1.5293,3.11328 2.908,6.00078 6.0806,11.82984 9.5332,17.49414 0.8475,1.39564 1.6945,2.78104 2.5742,4.15625 3.4315,5.34322 7.1016,10.49869 10.9941,15.49414 0.9869,1.27215 1.9078,2.58458 2.9239,3.83398 4.9302,6.03521 10.0922,11.8695 15.6582,17.31445 5.2318,5.11809 10.8234,9.85243 16.5683,14.4004 1.8293,1.45191 3.6834,2.85609 5.5645,4.24804 5.0083,3.6991 10.1639,7.19555 15.5,10.44141 1.2891,0.78418 2.5272,1.62571 3.8359,2.38281 6.0985,3.53032 12.4432,6.65775 18.9102,9.56445 2.032,0.91073 12.9189,5.87703 14.9883,6.72461 -13.47,-23.9272 -12.7607,-39.06851 5.9082,-49.25781 l 12.5703,-3.04883 c -43.4961,-18.51722 -84.3502,-59.50027 -96.2442,-104.11719 -1.5524,-5.84961 -2.6864,-11.86922 -3.5429,-17.97852 -0.2456,-1.74951 -0.3405,-3.53412 -0.5254,-5.29883 -0.4553,-4.32695 -0.7624,-8.69681 -0.8516,-13.12695 -0.04,-2.26053 0.01,-4.53519 0.068,-6.8125 0.1108,-4.63892 0.5021,-9.19821 1.0136,-13.72265 0.3075,-2.63929 0.5058,-5.267 0.9532,-7.91797 0.4716,-2.84185 1.2535,-5.56442 1.8789,-8.34961 1.9506,-8.63097 4.5312,-16.94403 7.8066,-24.86718 0.6619,-1.5958 1.1513,-3.27824 1.8652,-4.84571 1.5062,-3.31972 3.3439,-6.41588 5.0684,-9.58984 1.5339,-2.81326 2.9967,-5.67008 4.6992,-8.37109 1.7638,-2.8064 3.7276,-5.44925 5.6602,-8.11914 2.0492,-2.82391 4.1251,-5.62314 6.3594,-8.29493 2.0039,-2.40037 4.1008,-4.70758 6.2421,-6.97265 2.535,-2.67754 5.1716,-5.24942 7.8946,-7.73633 2.1736,-1.98723 4.3524,-3.96665 6.6347,-5.82227 3.1714,-2.57499 6.506,-4.94296 9.8829,-7.25976 2.097,-1.44093 4.1274,-2.97599 6.2949,-4.31055 5.6472,-3.46975 11.4771,-6.67995 17.5859,-9.40234 7.8245,-3.48696 16.003,-6.3358 24.4688,-8.48047 v -0.043 c 1.5957,-0.40684 3.2013,-0.78903 4.8144,-1.14453 v 30.93555 l 42.1993,-29.39454 42.19925,-29.394532 -42.19925,-29.39453 z m 91.59775,37.1797 c 26.9617,27.93401 -3.8894,47.846472 -15.6348,52.740232 10.3874,3.32484 16.2234,5.82687 24.3827,9.17188 l -0.055,0.0273 c 8.8052,3.59277 7.9899,3.37959 15.8007,8.42188 5.7352,3.70239 11.1039,7.85986 16.2403,12.2539 1.9724,1.69088 3.7699,3.56694 5.6523,5.35547 3.0274,2.87229 6.006,5.78822 8.7793,8.89063 1.9995,2.23962 3.8687,4.5908 5.7344,6.94726 2.3311,2.94174 4.563,5.95388 6.6699,9.0586 1.7828,2.63092 3.5085,5.30074 5.127,8.04687 1.8055,3.05737 3.4318,6.21497 5.0214,9.39649 1.495,3.00032 3.0191,5.98332 4.3184,9.09374 1.2666,3.02128 2.2682,6.1557 3.3398,9.26368 1.1873,3.45794 2.4926,6.86046 3.4336,10.42773 0.5793,2.18245 0.8649,4.45685 1.3477,6.67188 1.7672,8.15266 2.8494,16.53969 3.2656,25.1328 0.1331,2.8312 0.4553,5.62246 0.4297,8.48242 -0.014,2.25731 -0.2178,4.46307 -0.3281,6.69531 -0.2736,5.19415 -0.7483,10.41266 -1.5645,15.66407 -0.3501,2.29585 -0.5749,4.63434 -1.0254,6.89453 -2.5459,12.63517 -6.5774,24.59325 -11.8789,35.72462 -18.6625,39.07396 -53.4499,68.82492 -95.8827,80.76953 v 0.0742 c -4.4508,1.25661 -8.9749,2.31446 -13.56055,3.16406 v -32.39258 l -38.0957,27.67578 -38.0938,27.67578 38.0938,27.67578 38.0957,27.67579 v -22.74414 c 4.55975,-0.62975 9.08205,-1.41064 13.56055,-2.3379 v 0.0274 c 28.1543,-5.78878 54.2592,-17.31341 77.0331,-33.29102 6.3158,-4.41198 12.3054,-9.26814 18.1035,-14.35351 1.1734,-1.03388 2.2681,-2.14159 3.418,-3.20118 4.6469,-4.26354 9.1018,-8.72199 13.3555,-13.40234 1.0584,-1.16857 2.089,-2.35049 3.1211,-3.54297 4.3323,-4.98983 8.4198,-10.18734 12.2754,-15.59765 0.6439,-0.90451 1.3159,-1.78025 1.9453,-2.69532 13.2393,-19.22449 23.3776,-40.87181 29.5664,-64.44923 0.5152,-1.95426 0.8984,-3.94975 1.3574,-5.92578 0.8279,-3.5762 1.8163,-7.08016 2.4609,-10.73632 0.3772,-2.13901 0.465,-4.25744 0.7735,-6.39258 0.3856,-2.6693 0.6921,-5.3502 0.9746,-8.05078 0.6091,-5.80668 0.9607,-11.57292 1.0781,-17.32422 0.03,-1.43458 0.2656,-2.81637 0.2656,-4.25782 0,-0.95502 -0.1649,-1.86833 -0.1777,-2.82031 -0.09,-6.45295 -0.5241,-12.83309 -1.209,-19.17186 -0.1978,-1.85652 -0.2824,-3.73828 -0.5293,-5.58008 -1.0933,-8.05999 -2.5369,-16.03162 -4.5488,-23.82617 -5.6423,-21.99015 -14.8139,-42.59299 -26.8731,-61.16211 -35.4777,-54.804712 -95.218,-82.407482 -115.5643,-85.843752 z m -297.49425,9.35351 c -25.0173,0 -45.6211,20.60179 -45.6211,45.619142 v 286.79493 c 0,25.01735 20.6038,45.62109 45.6211,45.62109 h 120.2461 c -13.5138,-8.53733 -26.0613,-18.48168 -37.4316,-29.62305 h -82.8145 c -9.119,0 -15.998,-6.87901 -15.998,-15.99804 V 113.56702 c 0,-9.11903 6.879,-15.998042 15.998,-15.998042 h 82.8164 c 11.3698,-11.14058 23.9167,-21.08426 37.4297,-29.6211 z m 357.65435,0 c 13.513,8.53684 26.0578,18.48052 37.4277,29.6211 h 82.8184 c 9.1191,0 15.9981,6.879012 15.9981,15.998042 v 286.79493 c 0,9.11903 -6.879,15.99804 -15.9981,15.99804 h -82.8145 c -11.3704,11.14137 -23.9178,21.08572 -37.4316,29.62305 h 120.2461 c 25.0174,0 45.6192,-20.60374 45.6192,-45.62109 V 113.56702 c 0,-25.017352 -20.6018,-45.619142 -45.6192,-45.619142 z M 870.65535,502.45179 c -17.4406,0 -31.646,13.353 -32.9941,30.43554 h 265.64645 c -1.3481,-17.08254 -15.5555,-30.43554 -32.9961,-30.43554 z" /><circle
         style="font-variation-settings:normal;opacity:1;fill:#ff0101;fill-opacity:1;stroke:none;stroke-width:146.282;stroke-linecap:butt;stroke-linejoin:miter;stroke-miterlimit:4;stroke-dasharray:none;stroke-dashoffset:0;stroke-opacity:1"
         id="path9"
         cx="971.31097"
         cy="256.66754"
         r="63.777145" /></g></g></svg>
